<svg xmlns="http://www.w3.org/2000/svg" viewBox="0 0 128 128">
  <defs>
    <linearGradient id="bg" x1="0" y1="0" x2="1" y2="1">
      <stop offset="0%" stop-color="#81C784"/>
      <stop offset="100%" stop-color="#388E3C"/>
    </linearGradient>
  </defs>
  <circle cx="64" cy="64" r="64" fill="url(#bg)"/>
  <polygon points="38,42 46,54 50,40" fill="#8B6914"/>
  <polygon points="90,42 82,54 78,40" fill="#8B6914"/>
  <ellipse cx="64" cy="76" rx="32" ry="34" fill="#8B6914"/>
  <ellipse cx="64" cy="84" rx="22" ry="24" fill="#F5DEB3"/>
  <circle cx="50" cy="60" r="15" fill="white"/>
  <circle cx="78" cy="60" r="15" fill="white"/>
  <circle cx="52" cy="60" r="9" fill="#1a1a1a"/>
  <circle cx="80" cy="60" r="9" fill="#1a1a1a"/>
  <circle cx="55" cy="57" r="3.5" fill="white"/>
  <circle cx="83" cy="57" r="3.5" fill="white"/>
  <polygon points="64,66 57,75 71,75" fill="#FF9800"/>
  <polygon points="38,38 64,26 90,38 64,48" fill="#2E7D32"/>
  <rect x="60" y="26" width="8" height="5" rx="1" fill="#2E7D32"/>
  <circle cx="90" cy="38" r="2.5" fill="#FFD700"/>
  <line x1="90" y1="38" x2="94" y2="47" stroke="#FFD700" stroke-width="2"/>
  <circle cx="94" cy="48" r="3" fill="#FFD700"/>
  <ellipse cx="52" cy="108" rx="9" ry="4" fill="#FF9800"/>
  <ellipse cx="76" cy="108" rx="9" ry="4" fill="#FF9800"/>
</svg>
