<svg xmlns="http://www.w3.org/2000/svg" width="1200" height="630" viewBox="0 0 1200 630">
  <defs>
    <linearGradient id="bg" x1="0" y1="0" x2="1" y2="1">
      <stop offset="0%" stop-color="#81C784"/>
      <stop offset="50%" stop-color="#4CAF50"/>
      <stop offset="100%" stop-color="#388E3C"/>
    </linearGradient>
  </defs>
  <!-- Background -->
  <rect width="1200" height="630" fill="url(#bg)"/>
  <!-- Decorative circles -->
  <circle cx="100" cy="100" r="60" fill="rgba(255,255,255,0.05)"/>
  <circle cx="1100" cy="530" r="80" fill="rgba(255,255,255,0.05)"/>
  <circle cx="900" cy="80" r="40" fill="rgba(255,255,255,0.05)"/>
  <!-- Owl mascot -->
  <g transform="translate(200, 165) scale(2.3)">
    <ellipse cx="64" cy="72" rx="30" ry="32" fill="#8B6914"/>
    <ellipse cx="64" cy="80" rx="20" ry="22" fill="#F5DEB3"/>
    <circle cx="52" cy="56" r="14" fill="white"/>
    <circle cx="76" cy="56" r="14" fill="white"/>
    <circle cx="54" cy="56" r="8" fill="#1a1a1a"/>
    <circle cx="78" cy="56" r="8" fill="#1a1a1a"/>
    <circle cx="57" cy="53" r="3" fill="white"/>
    <circle cx="81" cy="53" r="3" fill="white"/>
    <polygon points="64,62 58,70 70,70" fill="#FF9800"/>
    <polygon points="38,38 44,50 48,36" fill="#8B6914"/>
    <polygon points="90,38 84,50 80,36" fill="#8B6914"/>
    <polygon points="40,34 64,24 88,34 64,44" fill="#1a1a1a"/>
    <rect x="60" y="24" width="8" height="4" fill="#1a1a1a"/>
    <circle cx="88" cy="34" r="2" fill="#FFD700"/>
    <line x1="88" y1="34" x2="92" y2="42" stroke="#FFD700" stroke-width="2"/>
    <circle cx="92" cy="43" r="3" fill="#FFD700"/>
    <ellipse cx="54" cy="102" rx="8" ry="4" fill="#FF9800"/>
    <ellipse cx="74" cy="102" rx="8" ry="4" fill="#FF9800"/>
  </g>
  <!-- Text -->
  <text x="550" y="250" font-family="system-ui, -apple-system, sans-serif" font-size="84" font-weight="900" fill="white" letter-spacing="3">kawabel</text>
  <text x="550" y="310" font-family="system-ui, -apple-system, sans-serif" font-size="28" fill="rgba(255,255,255,0.8)" letter-spacing="1">kawan belajar</text>
  <text x="550" y="380" font-family="system-ui, -apple-system, sans-serif" font-size="24" fill="rgba(255,255,255,0.65)">Teman belajar AI-mu. Tanya PR, latihan ujian,</text>
  <text x="550" y="415" font-family="system-ui, -apple-system, sans-serif" font-size="24" fill="rgba(255,255,255,0.65)">dikte Mandarin, dan banyak lagi!</text>
  <!-- Badge -->
  <rect x="550" y="450" width="120" height="36" rx="18" fill="rgba(255,255,255,0.2)"/>
  <text x="576" y="474" font-family="system-ui, -apple-system, sans-serif" font-size="16" fill="white" font-weight="600">Gratis! 🎓</text>
</svg>
